<?xml version="1.0" encoding="UTF-8" standalone="no"?>
<!-- Generator: Adobe Illustrator 24.0.2, SVG Export Plug-In . SVG Version: 6.00 Build 0)  -->

<svg
   version="1.1"
   id="Layer_1"
   x="0px"
   y="0px"
   viewBox="0 0 550 550"
   style="enable-background:new 0 0 550 550;"
   xml:space="preserve"
   sodipodi:docname="icon.svg"
   inkscape:version="1.4.3 (0d15f75042, 2025-12-25)"
   xmlns:inkscape="http://www.inkscape.org/namespaces/inkscape"
   xmlns:sodipodi="http://sodipodi.sourceforge.net/DTD/sodipodi-0.dtd"
   xmlns="http://www.w3.org/2000/svg"
   xmlns:svg="http://www.w3.org/2000/svg"><defs
   id="defs6" /><sodipodi:namedview
   id="namedview6"
   pagecolor="#ffffff"
   bordercolor="#000000"
   borderopacity="0.25"
   inkscape:showpageshadow="2"
   inkscape:pageopacity="0.0"
   inkscape:pagecheckerboard="true"
   inkscape:deskcolor="#d1d1d1"
   inkscape:zoom="1.0079486"
   inkscape:cx="273.32743"
   inkscape:cy="255.96543"
   inkscape:window-width="1920"
   inkscape:window-height="1002"
   inkscape:window-x="0"
   inkscape:window-y="0"
   inkscape:window-maximized="1"
   inkscape:current-layer="Layer_1" />
<style
   type="text/css"
   id="style1">
	.st0{fill:#4BE14E;}
</style>
<g
   transform="translate(0.000000,550.000000) scale(0.100000,-0.100000)"
   id="g6">
	<path
   class="st0"
   d="M2760,5245v-53l-222-113c-123-62-248-125-278-140c-30-16-58-29-62-29c-5,0-8,56-8,125v125h-430h-430v-348v-348   l-272-138c-257-130-636-325-703-360c-28-15,70-16,1207-16h1237l3,58l3,57h1188c653,0,1187,1,1187,1c0,2-182,95-518,266   c-341,173-618,313-1017,517c-165,84-363,184-440,223c-77,38-149,74-160,81c-11,6-80,41-152,78l-133,68V5245z"
   id="path1" />
	<path
   class="st0"
   d="M2960,3510v-410l438-2l437-3l3-427l2-428l405-2l405-3v843v842h-845h-845V3510z"
   id="path2" />
	<path
   class="st0"
   d="M950,2985v-845h845h845v845v845h-845H950V2985z"
   id="path3" />
	<path
   class="st0"
   d="M2830,2510v-420h420h420v420v420h-420h-420V2510z"
   id="path4" />
	<path
   class="st0"
   d="M952,1058l3-843h840h840v840v840l-843,3l-842,2L952,1058z"
   id="path5" />
	<path
   class="st0"
   d="M2872,1058l3-843l843-3l842-2v845v845h-845h-845L2872,1058z"
   id="path6" />
</g>
<path
   d="m 241.7195,495.63066 h -8.99941 a 3.8122567,3.8122567 0 0 1 -2.49985,-0.74995 5.062177,5.062177 0 0 1 -1.43742,-1.93737 l -5.81212,-16.06148 h -31.24801 l -6.2496,15.874 a 4.8121928,4.8121928 0 0 1 -1.37491,1.87488 3.6872646,3.6872646 0 0 1 -2.49985,0.87494 h -8.62444 l 28.43569,-71.68293 h 11.81174 z m -22.0611,-26.93577 -9.87436,-26.18582 a 72.620365,72.620365 0 0 1 -2.43735,-7.74951 q -0.56245,2.31235 -1.18742,4.31221 l -1.18743,3.49979 -9.87437,26.18583 z m -39.37248,-9.87437 a 83.932141,83.932141 0 0 1 -18.18634,-8.81194 71.620429,71.620429 0 0 0 17.56138,-33.56036 h 12.06173 v -8.31197 h -29.31063 a 24.998405,24.998405 0 0 0 -1.24993,-3.49978 c -1.49989,-4.06224 -3.18728,-8.99942 -3.18728,-8.99942 l -9.18692,3.1248 c 0,0 2.49984,5.56213 3.74976,9.3744 h -35.8102 v 8.31197 h 13.43663 a 70.183022,70.183022 0 0 0 17.81136,33.56036 107.43064,107.43064 0 0 1 -31.24799,13.12417 q 3.49977,5.12466 5.43714,8.62444 a 145.49071,145.49071 0 0 0 32.62293,-15.6865 97.74376,97.74376 0 0 0 22.24858,11.0618 z m -40.87239,-42.3723 h 30.68555 a 50.684265,50.684265 0 0 1 -15.31152,27.81073 56.933868,56.933868 0 0 1 -15.37403,-27.81073 z"
   id="path4-3"
   style="fill:#ffffff;fill-opacity:1;stroke-width:6.2496" /></svg>
